<svg xmlns="http://www.w3.org/2000/svg" viewBox="0 0 16.91 36.09">
  <defs>
    <style>
      .cls-1 {
        fill: #fff;
      }
    </style>
  </defs>
  <title>Asset 4</title>
  <g id="Layer_2" data-name="Layer 2">
    <g id="Layer_1-2" data-name="Layer 1">
      <path class="cls-1" d="M15.89,5.37C14,1.45,9.47-1.43,5.25.76.43,3.27-.07,9.05,0,13.89c.12,7,.31,14,.47,21h0c-.21.25.11.69,0,.89s0,.13,0,.12,0,0,0,0c0,.24.08,0,.28-.32a5.25,5.25,0,0,0,.43-.76C5,30.23,9,25.62,12.58,20.76,15.79,16.42,18.44,10.68,15.89,5.37ZM1.19,34.06Q1,26.44.85,18.82C.74,13.8-.23,7.48,3.07,3.23,4.88.9,7.73-.35,10.56.91a9.76,9.76,0,0,1,5,5.54c1.92,5.21-.82,10.51-3.91,14.62C8.31,25.51,4.71,29.77,1.19,34.06Z"/>
    </g>
  </g>
</svg>
